<?xml version="1.0" standalone="no"?>
<!DOCTYPE svg PUBLIC "-//W3C//DTD SVG 20010904//EN"
 "http://www.w3.org/TR/2001/REC-SVG-20010904/DTD/svg10.dtd">
<svg version="1.0" xmlns="http://www.w3.org/2000/svg"
 width="700.000000pt" height="700.000000pt" viewBox="0 0 700.000000 700.000000"
 preserveAspectRatio="xMidYMid meet">
<metadata>
Created by potrace 1.14, written by Peter Selinger 2001-2017
</metadata>
<g transform="translate(0.000000,700.000000) scale(0.100000,-0.100000)"
fill="#000000" stroke="none">
<path d="M3278 6995 c-1 -1 -42 -5 -89 -9 -47 -4 -95 -8 -105 -10 -10 -2 -46
-7 -79 -12 -33 -4 -62 -8 -65 -9 -3 0 -27 -4 -55 -9 -27 -4 -115 -23 -195 -42
-775 -184 -1459 -624 -1954 -1258 -157 -201 -328 -482 -421 -696 -25 -58 -52
-118 -59 -135 -51 -115 -148 -423 -171 -546 -3 -13 -11 -58 -20 -99 -22 -115
-30 -160 -41 -255 -26 -232 -26 -665 1 -826 2 -13 6 -46 9 -74 9 -78 22 -152
51 -285 21 -96 91 -339 114 -395 5 -11 25 -65 46 -120 64 -170 213 -461 314
-615 84 -126 253 -348 326 -426 336 -361 636 -592 1035 -796 334 -171 723
-294 1089 -344 25 -3 57 -8 71 -10 163 -25 682 -25 842 1 13 2 46 7 73 10 72
10 86 12 120 19 17 3 44 8 60 11 343 65 740 212 1039 384 49 28 91 51 93 51
10 0 268 180 353 247 151 118 324 281 450 422 36 41 70 79 75 85 62 67 240
317 320 450 179 298 346 717 411 1031 16 75 54 300 60 350 4 33 9 76 11 95 8
71 10 517 3 595 -17 172 -22 220 -25 225 -2 3 -6 30 -10 60 -3 30 -10 71 -15
90 -5 19 -12 51 -15 70 -13 75 -67 275 -106 392 -152 452 -408 889 -725 1237
-75 82 -255 258 -314 306 -25 21 -64 54 -88 74 -210 175 -558 382 -847 503
-236 99 -574 195 -785 223 -19 3 -46 7 -60 10 -13 2 -54 7 -90 11 -36 3 -78 8
-95 11 -33 5 -531 13 -537 8z m422 -589 c98 -7 229 -22 303 -37 29 -5 68 -12
87 -15 89 -14 411 -110 495 -148 17 -8 68 -31 115 -51 614 -272 1144 -794
1435 -1412 96 -203 180 -457 220 -663 44 -228 56 -350 55 -595 0 -93 -2 -188
-5 -210 -2 -22 -7 -68 -10 -103 -4 -35 -8 -71 -9 -80 -2 -9 -9 -51 -16 -92
-18 -111 -74 -332 -115 -447 -231 -666 -699 -1233 -1304 -1580 -82 -47 -288
-147 -346 -168 -27 -10 -54 -22 -60 -26 -12 -8 -249 -85 -285 -93 -14 -3 -74
-16 -135 -30 -60 -14 -130 -28 -155 -31 -25 -3 -56 -8 -70 -10 -26 -5 -105
-14 -180 -20 -61 -6 -395 -6 -445 0 -22 2 -65 7 -95 10 -1041 112 -1945 784
-2360 1754 -89 209 -174 500 -195 671 -4 30 -8 57 -10 60 -1 3 -6 41 -10 85
-4 44 -9 94 -11 110 -6 55 -6 359 1 440 28 349 131 730 278 1034 55 113 158
294 215 376 60 85 76 108 93 129 221 277 428 472 684 645 352 236 712 384
1110 455 174 31 198 34 365 42 74 4 136 7 137 8 3 2 140 -3 223 -8z"/>
<path d="M3407 6154 c-1 -1 -47 -4 -102 -8 -55 -3 -111 -8 -125 -11 -14 -2
-43 -6 -65 -10 -137 -20 -419 -87 -480 -114 -11 -5 -63 -26 -115 -46 -439
-173 -848 -484 -1132 -860 -57 -75 -168 -242 -168 -251 0 -4 -6 -15 -14 -23
-15 -17 -99 -182 -139 -271 -94 -212 -178 -521 -202 -741 -3 -30 -8 -74 -11
-99 -6 -55 -7 -394 -1 -435 3 -16 8 -61 12 -100 17 -172 83 -441 153 -625 72
-190 212 -450 326 -605 200 -273 424 -487 701 -672 82 -54 123 -78 265 -155
67 -36 252 -112 360 -148 94 -31 299 -83 374 -94 21 -4 48 -8 60 -11 20 -4 60
-8 191 -21 125 -12 464 -5 525 11 8 2 38 6 65 10 181 22 583 135 629 176 6 5
16 9 23 9 13 0 207 94 288 140 42 23 143 90 235 155 433 304 822 844 969 1345
13 41 26 86 31 100 11 32 47 192 55 245 48 321 51 585 10 843 -3 17 -8 49 -11
70 -3 20 -13 66 -21 102 -8 36 -17 74 -19 84 -11 59 -62 216 -101 316 -374
953 -1261 1612 -2270 1686 -76 5 -292 11 -296 8z m358 -247 c11 -3 45 -8 75
-12 30 -4 64 -9 75 -11 11 -2 34 -7 50 -10 17 -2 46 -9 65 -14 19 -5 44 -11
55 -13 30 -5 102 -26 165 -47 458 -154 837 -418 1142 -796 58 -72 167 -229
194 -279 81 -151 108 -205 142 -288 93 -222 156 -466 179 -692 15 -144 8 -468
-11 -580 -3 -16 -8 -43 -10 -60 -23 -169 -114 -458 -200 -639 -335 -702 -979
-1198 -1746 -1344 -58 -11 -141 -24 -185 -29 -98 -10 -430 -10 -505 0 -30 4
-73 10 -95 13 -22 2 -47 6 -55 8 -8 1 -33 6 -55 10 -236 45 -544 159 -740 274
-252 146 -490 346 -660 552 -20 25 -45 55 -56 68 -34 39 -124 174 -182 272
-103 173 -230 490 -261 650 -2 14 -11 57 -19 95 -32 148 -42 265 -42 470 0
308 39 532 142 820 86 242 264 551 421 730 241 275 502 477 805 624 261 126
531 201 812 227 39 4 72 8 73 10 6 4 405 -4 427 -9z"/>
<path d="M2640 3898 c-118 -18 -253 -115 -313 -226 -35 -64 -57 -167 -52 -241
6 -85 47 -194 88 -235 9 -9 22 -25 29 -34 24 -32 103 -88 155 -110 53 -23 153
-41 195 -36 80 11 106 17 161 43 183 84 282 275 252 485 -10 74 -70 179 -135
239 -106 98 -234 137 -380 115z"/>
<path d="M4172 3889 c-171 -43 -312 -201 -328 -367 -3 -31 -6 -59 -7 -62 0 -3
3 -32 7 -65 24 -185 188 -348 376 -373 81 -12 187 4 250 35 278 141 342 498
128 714 -115 116 -268 158 -426 118z"/>
</g>
</svg>
